<svg xmlns="http://www.w3.org/2000/svg" viewBox="0 0 823.174 1329.254"><defs><style>.cls-1,.cls-28{fill:#161616;}.cls-2{font-size:57px;fill:#e5e5e5;letter-spacing:-0.032em;}.cls-17,.cls-18,.cls-19,.cls-2,.cls-28,.cls-32,.cls-35,.cls-48,.cls-50,.cls-52,.cls-55,.cls-56,.cls-61,.cls-67{font-family:London-Tube, London Tube;}.cls-3{letter-spacing:-0.014em;}.cls-4{letter-spacing:-0.017em;}.cls-5{letter-spacing:-0.086em;}.cls-6{letter-spacing:-0.017em;}.cls-7{letter-spacing:-0.04em;}.cls-8{letter-spacing:-0.043em;}.cls-9{font-size:44.687px;letter-spacing:-0.017em;}.cls-10{letter-spacing:-0.055em;}.cls-11{letter-spacing:-0.075em;}.cls-12{letter-spacing:-0.002em;}.cls-13{letter-spacing:-0.06em;}.cls-14{letter-spacing:-0.017em;}.cls-15{letter-spacing:-0.002em;}.cls-16{letter-spacing:0.011em;}.cls-17,.cls-18,.cls-19,.cls-28{font-size:15.773px;}.cls-17,.cls-25,.cls-52{fill:red;}.cls-18,.cls-27,.cls-50{fill:aqua;}.cls-19,.cls-26,.cls-32,.cls-55{fill:#f0f;}.cls-20,.cls-21,.cls-22,.cls-23,.cls-24,.cls-59{fill:none;}.cls-20{stroke:aqua;}.cls-20,.cls-21,.cls-22,.cls-23,.cls-24,.cls-59,.cls-60{stroke-miterlimit:10;}.cls-20,.cls-21,.cls-22,.cls-23,.cls-60{stroke-width:7px;}.cls-21,.cls-23,.cls-24,.cls-60{stroke:#f0f;}.cls-22{stroke:red;}.cls-23{stroke-dasharray:12;}.cls-24{stroke-width:3.423px;}.cls-29{letter-spacing:-0.018em;}.cls-30{letter-spacing:-0.055em;}.cls-31{letter-spacing:-0.072em;}.cls-32{font-size:28.584px;}.cls-33{opacity:0.33;}.cls-34,.cls-36,.cls-37,.cls-38,.cls-39,.cls-40,.cls-41,.cls-42,.cls-43,.cls-44,.cls-45,.cls-46,.cls-47,.cls-48{font-size:11.079px;}.cls-34,.cls-35,.cls-48,.cls-61,.cls-67{fill:#f4f4f4;}.cls-34,.cls-65{font-family:OpenSans-Light, Open Sans;}.cls-35{font-size:14.488px;letter-spacing:-0.017em;}.cls-36{letter-spacing:-0.017em;}.cls-37{letter-spacing:-0.079em;}.cls-38{letter-spacing:-0.039em;}.cls-39,.cls-48{letter-spacing:-0.017em;}.cls-40{letter-spacing:-0.006em;}.cls-41{letter-spacing:-0.037em;}.cls-42{letter-spacing:-0.014em;}.cls-43{letter-spacing:-0.024em;}.cls-44{letter-spacing:-0.024em;}.cls-45{letter-spacing:-0.072em;}.cls-46{letter-spacing:-0.055em;}.cls-47{letter-spacing:-0.024em;}.cls-49{letter-spacing:-0.036em;}.cls-50,.cls-52,.cls-55,.cls-56{font-size:12px;}.cls-51{letter-spacing:-0.036em;}.cls-53{letter-spacing:-0.008em;}.cls-54{letter-spacing:-0.02em;}.cls-56,.cls-58{fill:#f2f2f2;}.cls-57{letter-spacing:0.024em;}.cls-59{stroke:#f2f2f2;stroke-width:3.395px;}.cls-60{fill:#3d3d3d;}.cls-61{font-size:15px;}.cls-62{letter-spacing:-0.024em;}.cls-63{letter-spacing:-0.019em;}.cls-64{letter-spacing:-0.055em;}.cls-66{letter-spacing:0.003em;}.cls-67{font-size:14px;}.cls-68{letter-spacing:-0.011em;}.cls-69{letter-spacing:0.011em;}.cls-70{letter-spacing:-0.007em;}.cls-71{letter-spacing:-0.036em;}.cls-72{letter-spacing:0em;}.cls-73{letter-spacing:-0.02em;}.cls-74{letter-spacing:-0.019em;}.cls-75{letter-spacing:-0.007em;}.cls-76{letter-spacing:-0.038em;}.cls-77{letter-spacing:-0.007em;}</style></defs><title>DataArt Posting Guide</title><g id="Layer_1" data-name="Layer 1"><rect class="cls-1" width="823.174" height="1329.254"/></g><g id="Layer_5" data-name="Layer 5"><text class="cls-2" transform="translate(169.798 169.908) scale(1.021 1)">Sh<tspan class="cls-3" x="59.621" y="0">o</tspan><tspan class="cls-4" x="90.971" y="0">u</tspan><tspan class="cls-5" x="121.808" y="0">ld</tspan><tspan class="cls-6" x="166.95" y="0" xml:space="preserve"> I s</tspan><tspan class="cls-7" x="236.546" y="0">ub</tspan><tspan class="cls-6" x="296.851" y="0">mit </tspan><tspan class="cls-8" x="395.231" y="0">my</tspan><tspan class="cls-9"><tspan x="-0.352" y="50.923">new post</tspan><tspan class="cls-10" x="182.506" y="50.923"> </tspan><tspan x="192.829" y="50.923">to </tspan><tspan class="cls-11" x="248.017" y="50.923">r</tspan><tspan class="cls-12" x="261.647" y="50.923">/</tspan><tspan class="cls-13" x="284.749" y="50.923">Da</tspan><tspan class="cls-14" x="333.904" y="50.923">ta</tspan><tspan class="cls-15" x="374.167" y="50.923">Ar</tspan><tspan class="cls-16" x="420.06" y="50.923">t</tspan><tspan x="440.035" y="50.923">? </tspan></tspan></text><text class="cls-17" transform="translate(376.312 726.123)">NO</text><text class="cls-17" transform="translate(376.312 943.711)">NO</text><text class="cls-18" transform="translate(217.78 600.387)">YES</text><text class="cls-17" transform="translate(219.136 381.494)">NO</text><text class="cls-17" transform="translate(219.136 1036.294)">NO</text><text class="cls-18" transform="translate(576.654 818.773)">YES</text><text class="cls-18" transform="translate(572.356 1036.294)">YES</text><text class="cls-18" transform="translate(420.485 504.776)">YES</text><text class="cls-19" transform="translate(421.699 1144.186)">UNSURE</text><path class="cls-20" d="M494.213,803.153h90.038A48.389,48.389,0,0,1,632.5,851.4v255.031" transform="translate(16.397 26.478)"/><path class="cls-20" d="M294.705,586.105l-90.039-.351a48.16,48.16,0,0,0-48.247,48.058v461.755" transform="translate(16.397 26.478)"/><line class="cls-20" x1="410.546" y1="471.155" x2="410.546" y2="533.002"/><line class="cls-21" x1="410.856" y1="288.563" x2="410.856" y2="313.548"/><line class="cls-22" x1="410.856" y1="689.053" x2="410.856" y2="750.9"/><line class="cls-22" x1="410.856" y1="908.434" x2="410.856" y2="970.281"/><line class="cls-23" x1="410.856" y1="1063.061" x2="410.836" y2="1153.606"/><path class="cls-24" d="M294.705,826.858" transform="translate(16.397 26.478)"/><path class="cls-22" d="M309.709,1020.775l-105.043-.069c-26.536-.018-48.247,19.263-48.247,42.846v42.879" transform="translate(16.397 26.478)"/><path class="cls-22" d="M294.705,366.829l-90.039-.5A48.064,48.064,0,0,0,156.419,414.3v681.264" transform="translate(16.397 26.478)"/><path class="cls-20" d="M494.213,1020.674h90.038c26.536,0,48.247,19.3,48.247,42.878v42.879" transform="translate(16.397 26.478)"/><circle class="cls-25" cx="172.816" cy="1132.908" r="10.864"/><circle class="cls-26" cx="410.836" cy="1164.47" r="10.864"/><circle class="cls-27" cx="648.895" cy="1132.908" r="10.864"/><rect class="cls-25" x="94.52" y="1132.908" width="156.593" height="63.123" rx="20" ry="20"/><rect class="cls-27" x="570.599" y="1132.908" width="156.593" height="63.123" rx="20" ry="20"/><rect class="cls-26" x="332.54" y="1164.47" width="156.593" height="63.123" rx="20" ry="20"/><text class="cls-28" transform="translate(357.413 1192.055)">MESS<tspan class="cls-29" x="40.142" y="0">A</tspan><tspan x="50.126" y="0">GE</tspan><tspan class="cls-30" x="72.035" y="0"> </tspan><tspan x="75.678" y="0">THE </tspan><tspan x="-1.286" y="18.928">MODER</tspan><tspan class="cls-31" x="56.223" y="18.928">A</tspan><tspan x="65.355" y="18.928">TORS</tspan></text><text class="cls-28" transform="translate(147.39 1160.493)">DON’T<tspan x="-4.621" y="18.928">POST IT</tspan></text><text class="cls-28" transform="translate(618.848 1168.884)">POST IT</text><text class="cls-32" transform="translate(335.088 279.415)">NEW POST</text><g class="cls-33"><text class="cls-34" transform="translate(27.955 1277.155)">*</text><text class="cls-35" transform="translate(34.057 1277.155) scale(1.021 1)"> <tspan class="cls-36" x="3.897" y="0">But w</tspan><tspan class="cls-37" x="32.426" y="0">e</tspan><tspan class="cls-36" x="37.711" y="0">’ve </tspan><tspan class="cls-38" x="54.252" y="0">g</tspan><tspan class="cls-39" x="59.692" y="0">ot nothing </tspan><tspan class="cls-40" x="112.971" y="0">a</tspan><tspan class="cls-41" x="118.433" y="0">g</tspan><tspan class="cls-36" x="123.895" y="0">ainst Ex</tspan><tspan class="cls-42" x="162.106" y="0">c</tspan><tspan class="cls-36" x="167.69" y="0">el if used in </tspan><tspan class="cls-43" x="228.37" y="0">a</tspan><tspan class="cls-36" x="233.632" y="0">n unconventional </tspan><tspan class="cls-44" x="320.569" y="0">a</tspan><tspan class="cls-39" x="325.832" y="0">nd creative way.</tspan><tspan class="cls-39" x="-5.978" y="11.932" xml:space="preserve">  </tspan><tspan class="cls-45" x="-0.018" y="11.932" xml:space="preserve"> W</tspan><tspan class="cls-36" x="13.111" y="11.932">e just w</tspan><tspan class="cls-43" x="51.5" y="11.932">a</tspan><tspan class="cls-36" x="56.763" y="11.932">nt</tspan><tspan class="cls-46" x="67.344" y="11.932"> </tspan><tspan class="cls-39" x="69.903" y="11.932">to avoid bog-st</tspan><tspan class="cls-47" x="143.268" y="11.932">a</tspan><tspan class="cls-39" x="148.531" y="11.932">ndard, pre-set coloured charts </tspan><tspan class="cls-47" x="300.833" y="11.932">a</tspan><tspan class="cls-39" x="306.096" y="11.932">nd graphs.</tspan></text></g><g class="cls-33"><text class="cls-48" transform="translate(709.302 1289.26) scale(1.021 1)">N<tspan class="cls-49" x="8.376" y="0">O</tspan><tspan x="17.095" y="0">VEMBER 2018</tspan></text></g><text class="cls-50" transform="translate(614.028 397.201)"><tspan class="cls-51">P</tspan><tspan x="6.3" y="0">ositive</tspan></text><text class="cls-52" transform="translate(614.028 433.999)">N<tspan class="cls-53" x="9.276" y="0">e</tspan><tspan class="cls-54" x="15.853" y="0">g</tspan><tspan x="21.973" y="0">ative</tspan></text><text class="cls-55" transform="translate(614.028 470.797)"><tspan class="cls-51">P</tspan><tspan x="6.3" y="0">otential</tspan></text><text class="cls-56" transform="translate(614.028 599.634)"><tspan class="cls-57">A</tspan><tspan x="8.1" y="0">ction</tspan></text><text class="cls-56" transform="translate(614.028 562.837)">Answer</text><text class="cls-56" transform="translate(614.028 526.039)">Question</text><circle class="cls-25" cx="591.164" cy="428.864" r="10.864"/><circle class="cls-27" cx="591.164" cy="392.148" r="10.864"/><circle class="cls-26" cx="591.164" cy="463.787" r="10.864"/><polygon class="cls-58" points="608.856 521.599 591.174 530.8 573.473 521.599 591.174 512.356 608.856 521.599"/><rect class="cls-58" x="575.634" y="589.054" width="31.06" height="12.52" rx="2.946" ry="2.946"/><path class="cls-59" d="M585.029,526.878h-8.936a4.012,4.012,0,0,0-4,4v3.914a4.012,4.012,0,0,1-4,4h-8.855" transform="translate(16.397 26.478)"/><circle class="cls-58" cx="601.426" cy="553.329" r="5.268"/><circle class="cls-25" cx="410.546" cy="750.828" r="10.864"/><circle class="cls-25" cx="410.546" cy="970.281" r="10.864"/><circle class="cls-27" cx="410.546" cy="533.002" r="10.864"/><circle class="cls-26" cx="410.546" cy="313.548" r="10.864"/><path class="cls-60" d="M501.443,388.857l-107.272,55.82L242.916,366.056l151.255-78.985,107.316,56.1C519.943,352.821,519.918,379.244,501.443,388.857Z" transform="translate(16.397 26.478)"/><text class="cls-61" transform="translate(399.346 369.619)">Is it <tspan x="-52.949" y="18">a data visualisation</tspan><tspan x="-36.209" y="36">or in</tspan><tspan class="cls-62" x="-6.03" y="36">f</tspan><tspan x="0.21" y="36">ormation</tspan><tspan x="-12.713" y="54">desi</tspan><tspan class="cls-63" x="15.052" y="54">g</tspan><tspan x="22.717" y="54">n?</tspan></text><path class="cls-60" d="M501.443,608.549,394.171,664.368l-151.255-78.62,151.255-78.986,107.316,56.1C519.943,572.512,519.918,598.936,501.443,608.549Z" transform="translate(16.397 26.478)"/><text class="cls-61" transform="translate(386.98 599.834)"><tspan class="cls-64">W</tspan><tspan x="14.82" y="0">as it</tspan><tspan x="-43.925" y="17">obviously</tspan><tspan class="cls-65" x="22.044" y="17">*</tspan><tspan x="30.306" y="17" xml:space="preserve"> made in</tspan><tspan x="-0.607" y="34">Ex</tspan><tspan class="cls-66" x="15.832" y="34">c</tspan><tspan x="23.647" y="34">el?</tspan></text><path class="cls-60" d="M545.261,803.336l-151.09,78.621L286.792,826.142c-18.488-9.61-18.513-36.05-.043-45.7l107.422-56.1Z" transform="translate(16.397 26.478)"/><text class="cls-67" transform="translate(392.186 788.563)"><tspan class="cls-68">C</tspan><tspan x="10.136" y="0">ould </tspan><tspan x="-43" y="16">you im</tspan><tspan class="cls-69" x="-0.692" y="16">a</tspan><tspan x="6.447" y="16">gine it as </tspan><tspan class="cls-70" x="67.71" y="16">a</tspan><tspan x="74.599" y="16" xml:space="preserve">n  </tspan><tspan x="-78.798" y="32">artwork in</tspan><tspan class="cls-71" x="-13.937" y="32"> </tspan><tspan x="-10.437" y="32">your room?</tspan><tspan class="cls-71" x="61.368" y="32"> </tspan><tspan x="64.868" y="32">Or as </tspan><tspan class="cls-70" x="103.507" y="32">a</tspan><tspan class="cls-72" x="110.396" y="32">n </tspan><tspan x="-81.625" y="48">exhibit in a </tspan><tspan class="cls-73" x="-8.266" y="48">g</tspan><tspan x="-1.126" y="48">allery? (AKA, has it</tspan><tspan x="-58.624" y="64">paid particular attention </tspan><tspan x="-14.721" y="80">to desi</tspan><tspan class="cls-74" x="29.197" y="80">g</tspan><tspan x="36.351" y="80">n?)</tspan></text><path class="cls-60" d="M545.261,1021.307l-121.1,63.013a65.018,65.018,0,0,1-60,.014l-121.253-63.027,151.255-78.985Z" transform="translate(16.397 26.478)"/><text class="cls-61" transform="translate(396.346 1012.001)">Is it<tspan x="-56.287" y="17">highly experimental</tspan><tspan x="-99.539" y="34">in its desi</tspan><tspan class="cls-63" x="-34.199" y="34">g</tspan><tspan x="-26.534" y="34">n </tspan><tspan class="cls-75" x="-13.949" y="34">a</tspan><tspan x="-6.568" y="34">nd/or does it make </tspan><tspan x="-81.757" y="51">you</tspan><tspan class="cls-76" x="-56.797" y="51"> </tspan><tspan x="-53.077" y="51">think of data viz in new</tspan><tspan class="cls-77" x="-38.902" y="68">a</tspan><tspan x="-31.522" y="68">nd interesting </tspan><tspan x="-8.055" y="85">ways?</tspan></text></g></svg>